<?xml version="1.0" standalone="no"?>
<!DOCTYPE svg PUBLIC "-//W3C//DTD SVG 20010904//EN"
 "http://www.w3.org/TR/2001/REC-SVG-20010904/DTD/svg10.dtd">
<svg version="1.0" xmlns="http://www.w3.org/2000/svg"
 width="1080.000000pt" height="1080.000000pt" viewBox="0 0 1080.000000 1080.000000"
 preserveAspectRatio="xMidYMid meet">
<metadata>
Created by potrace 1.14, written by Peter Selinger 2001-2017
</metadata>
<g transform="translate(0.000000,1080.000000) scale(0.100000,-0.100000)"
fill="#000000" stroke="none">
<path d="M5109 10796 c-2 -2 -55 -7 -117 -11 -63 -3 -121 -8 -130 -10 -9 -1
-48 -6 -85 -10 -37 -3 -78 -8 -89 -10 -12 -3 -44 -7 -72 -10 -28 -3 -58 -8
-66 -10 -8 -2 -35 -7 -60 -10 -67 -10 -319 -63 -423 -90 -34 -9 -70 -18 -80
-20 -10 -2 -32 -9 -50 -14 -18 -6 -79 -24 -137 -42 -378 -112 -818 -309 -1190
-533 -874 -527 -1590 -1304 -2044 -2216 -86 -174 -181 -393 -236 -545 -18 -49
-36 -99 -40 -110 -11 -27 -74 -230 -101 -325 -16 -57 -13 -45 -29 -115 -7 -33
-15 -64 -16 -70 -9 -31 -73 -348 -78 -390 -4 -27 -9 -66 -12 -85 -2 -19 -6
-48 -9 -65 -13 -85 -18 -134 -32 -315 -15 -185 -7 -818 11 -930 3 -14 7 -47
10 -75 18 -158 31 -243 61 -400 3 -16 10 -52 15 -80 14 -83 57 -257 95 -387
20 -68 38 -130 40 -138 6 -26 82 -242 118 -335 167 -433 420 -890 706 -1274
73 -96 214 -273 256 -317 5 -6 45 -50 88 -97 115 -127 262 -271 417 -413 25
-22 106 -89 180 -148 165 -132 150 -121 235 -180 39 -28 72 -53 75 -56 3 -4
10 -9 15 -11 6 -2 57 -35 115 -73 475 -314 1047 -567 1601 -706 150 -38 325
-77 381 -85 15 -2 53 -9 85 -14 55 -10 99 -17 168 -26 17 -2 50 -6 75 -10 48
-6 101 -11 240 -23 177 -14 836 -6 935 12 11 2 52 7 90 11 39 4 77 9 86 10 9
2 40 6 70 10 30 3 61 8 69 10 8 2 33 7 55 10 23 3 52 8 65 10 14 3 61 12 105
20 44 9 98 20 120 26 22 6 49 13 60 15 52 10 69 14 142 34 128 35 337 100 355
110 10 6 22 10 28 10 10 0 252 90 295 110 11 5 67 30 125 56 357 157 722 374
1056 624 82 62 151 115 154 119 3 3 32 28 65 56 160 132 426 390 551 534 22
25 46 52 54 61 39 41 156 186 234 290 47 63 89 120 94 125 22 28 204 309 240
370 204 350 370 715 490 1085 31 93 100 335 108 375 2 11 6 29 9 40 11 47 65
313 70 345 3 20 7 45 9 57 3 12 7 43 11 70 4 26 8 59 10 73 32 231 40 373 40
720 -1 275 -8 466 -20 530 -2 10 -6 45 -10 77 -3 32 -8 78 -11 103 -5 43 -39
249 -49 300 -3 14 -8 41 -11 60 -3 19 -15 71 -26 115 -11 44 -22 91 -24 105
-3 14 -23 89 -44 167 -149 528 -377 1027 -688 1503 -99 150 -328 459 -372 500
-3 3 -30 34 -60 70 -100 118 -243 266 -402 415 -367 344 -777 630 -1233 860
-324 163 -553 256 -861 350 -108 33 -392 107 -454 118 -14 3 -74 14 -135 25
-60 12 -126 23 -145 26 -19 3 -46 8 -60 10 -45 8 -193 26 -265 32 -38 3 -83 8
-100 10 -35 6 -711 15 -716 10z"/>
</g>
</svg>
